# xmcd CD database file
#
# Track frame offsets:
#	150
#	10132
#	23478
#	36996
#	49899
#	62792
#	76400
#	88322
#	100212
#	111649
#	123366
#	134196
#	148489
#	164964
#	177095
#	189837
#	202076
#	213299
#	224646
#	238099
#	253781
#	261831
#	271326
#	286259
#	296495
#	315425
#	324677
#	340763
#	349578
#	358239
#	370675
#	383269
#
# Disc length: 5237 seconds
#
# Revision: 0
# Processed by: cddbd v1.5.2PL0 Copyright (c) Steve Scherf et al.
# Submitted via: CDex 1.79
#
DISCID=08147320
DTITLE=Big Jeff Bess - Tennessee Home Brew
DYEAR=2010
DGENRE=Country
TTITLE0=Hom-Bru Boogie
TTITLE1=A Kiss And A Memory (1947)
TTITLE2=Poppin` Bubble Gum (1947)
TTITLE3=The Tramp On The Street
TTITLE4=Gonna Give You Back To The Indians
TTITLE5=After We Are Through (1949)
TTITLE6=Poppin` Bubble Gum (1949)
TTITLE7=Juke Box Boogie
TTITLE8=You Talk In Your Sleep
TTITLE9=Step It Up And Go
TTITLE10=After We Are Through (1951)
TTITLE11=Lifetime To Regret
TTITLE12=Fast Women Slow Horses And Wine
TTITLE13=Move On Baby
TTITLE14=I`m In Love Dear With Thee
TTITLE15=I Courted An Angel (1952)
TTITLE16=I Don`t Talk To Strangers
TTITLE17=Somebody Clipped Your Wings
TTITLE18=Car Hoppin` Mama
TTITLE19=Most Of All
TTITLE20=San Antonio Rose
TTITLE21=The Bible Tells Me So
TTITLE22=Waiting For A Train
TTITLE23=Long Tall Sally
TTITLE24=Precious Memories
TTITLE25=The Same Two Lips
TTITLE26=If You Ever Fall In Love
TTITLE27=A Kiss And A Memory
TTITLE28=I Courted An Angel
TTITLE29=Slowly Dying
TTITLE30=You
TTITLE31=Ten-E-Cee Hom-Bru
EXTD=YEAR: 2010
EXTT0=
EXTT1=
EXTT2=
EXTT3=
EXTT4=
EXTT5=
EXTT6=
EXTT7=
EXTT8=
EXTT9=
EXTT10=
EXTT11=
EXTT12=
EXTT13=
EXTT14=
EXTT15=
EXTT16=
EXTT17=
EXTT18=
EXTT19=
EXTT20=
EXTT21=
EXTT22=
EXTT23=
EXTT24=
EXTT25=
EXTT26=
EXTT27=
EXTT28=
EXTT29=
EXTT30=
EXTT31=
PLAYORDER=
